<svg width="773" height="224" viewBox="0 0 773 224" fill="none" xmlns="http://www.w3.org/2000/svg">
<path d="M176.244 42.9199H703.464C741.724 42.9199 772.784 73.9799 772.784 112.24C772.784 150.5 741.724 181.56 703.464 181.56H176.244V42.9199Z" fill="white"/>
<path d="M703.464 181.56H176.244V42.9199H703.464C741.684 42.9199 772.784 74.0199 772.784 112.24C772.784 150.46 741.684 181.56 703.464 181.56ZM180.244 177.56H703.464C739.484 177.56 768.784 148.26 768.784 112.24C768.784 76.2199 739.484 46.9199 703.464 46.9199H180.244V177.56Z" fill="#006837"/>
<path d="M293.445 109.52H315.195V132.46H308.905L307.265 128.27C305.455 130.2 300.295 133.71 289.825 133.71C272.155 133.71 264.395 126.23 264.395 112.25C264.395 100.3 272.265 90.79 289.765 90.79C300.865 90.79 313.545 93.68 315.195 105.34H299.965C299.055 102.23 296.685 99.51 290.335 99.51C282.015 99.51 278.325 105.17 278.325 112.31C278.325 119.45 282.005 125 290.335 125C296.965 125 300.415 122.51 301.715 117.92H293.445V109.54V109.52Z" fill="black"/>
<path d="M340.675 92.0205H357.155L374.545 132.451H360.105L357.665 125.881H339.995L337.555 132.451H323.115L340.675 92.0205ZM348.885 102.221H348.775L343.165 117.51H354.495L348.885 102.221Z" fill="black"/>
<path d="M382.695 92.0205H402.405L411.635 118.691H411.745L420.975 92.0205H440.685V132.451H428.005V102.211H427.895L417.245 132.451H406.145L395.495 102.211H395.385V132.451H382.695V92.0205Z" fill="black"/>
<path d="M454.494 92.0205H494.984V100.741H467.974V108.051H493.284V116.431H467.974V123.741H494.984V132.461H454.494V92.0305V92.0205Z" fill="black"/>
<path d="M535.875 104.25C534.515 98.0204 529.365 94.4504 523.475 94.4504C512.775 94.4504 508.245 103.4 508.245 112.23C508.245 121.06 512.775 130.01 523.475 130.01C530.955 130.01 535.705 124.23 536.445 117.04H540.295C539.215 127.01 532.935 133.29 523.475 133.29C510.735 133.29 504.395 123.32 504.395 112.22C504.395 101.12 510.735 91.1504 523.475 91.1504C531.175 91.1504 538.655 95.7904 539.725 104.23H535.875V104.25Z" fill="black"/>
<path d="M551.844 92.0205H555.694V109.581H579.704V92.0205H583.554V132.451H579.704V112.861H555.694V132.451H551.844V92.0205Z" fill="black"/>
<path d="M597.375 92.0198H625.295V95.2998H601.225V109.91H623.765V113.19H601.225V129.16H625.575V132.44H597.375V92.0098V92.0198Z" fill="black"/>
<path d="M666.185 104.25C664.825 98.0204 659.675 94.4504 653.785 94.4504C643.085 94.4504 638.555 103.4 638.555 112.23C638.555 121.06 643.085 130.01 653.785 130.01C661.265 130.01 666.015 124.23 666.755 117.04H670.605C669.525 127.01 663.245 133.29 653.785 133.29C641.045 133.29 634.705 123.32 634.705 112.22C634.705 101.12 641.045 91.1504 653.785 91.1504C661.485 91.1504 668.965 95.7904 670.035 104.23H666.185V104.25Z" fill="black"/>
<path d="M682.155 92.0205H686.005V113.771L709.505 92.0205H714.715L696.645 108.73L715.555 132.461H710.575L693.755 111.391L685.995 118.581V132.451H682.145V92.0205H682.155Z" fill="black"/>
<path d="M112.195 197.04C159.028 197.04 196.995 159.074 196.995 112.24C196.995 65.4067 159.028 27.4404 112.195 27.4404C65.3608 27.4404 27.3945 65.4067 27.3945 112.24C27.3945 159.074 65.3608 197.04 112.195 197.04Z" fill="white"/>
<path d="M131.986 159.359H92.7858L56.6758 91.0693H95.8858L131.986 159.359Z" fill="#006837"/>
<path d="M112.195 224.46C82.2148 224.46 54.0348 212.79 32.8348 191.59C11.6348 170.39 -0.0351562 142.21 -0.0351562 112.23C-0.0351562 82.25 11.6348 54.07 32.8348 32.87C54.0348 11.67 82.2148 0 112.195 0C142.175 0 170.355 11.67 191.555 32.87C212.755 54.07 224.425 82.25 224.425 112.23C224.425 142.21 212.755 170.39 191.555 191.59C170.355 212.79 142.175 224.46 112.195 224.46ZM112.195 34.62C69.3949 34.62 34.5748 69.44 34.5748 112.24C34.5748 155.04 69.3949 189.86 112.195 189.86C154.995 189.86 189.815 155.04 189.815 112.24C189.815 69.44 154.995 34.62 112.195 34.62Z" fill="#006837"/>
<path d="M131.975 159.36H92.7754L185.215 0.00976562H224.415L131.975 159.36Z" fill="#009245"/>
</svg>
