<svg width="170" height="24" viewBox="0 0 170 24" fill="none" xmlns="http://www.w3.org/2000/svg">
<g clip-path="url(#clip0_5591_2328)">
<path d="M16.5276 16.5849H13.3977V7.41506H16.5276V16.5849ZM11.2312 16.5849H8.10127V7.41506H11.2312V16.5849ZM12.3065 0C9.93467 0 7.61614 0.703319 5.64406 2.02102C3.67199 3.33872 2.13494 5.21161 1.2273 7.40286C0.319649 9.59412 0.0821674 12.0053 0.544882 14.3315C1.0076 16.6578 2.14972 18.7945 3.82684 20.4716C5.50395 22.1487 7.64072 23.2909 9.96694 23.7536C12.2932 24.2163 14.7044 23.9788 16.8956 23.0712C19.0869 22.1635 20.9598 20.6265 22.2775 18.6544C23.5951 16.6823 24.2985 14.3638 24.2985 11.992C24.2985 8.81153 23.035 5.76131 20.7861 3.51238C18.5372 1.26344 15.4869 0 12.3065 0M34.8914 16.5809H31.8055V10.0093H29.551V7.40306H37.1459V10.0093H34.8914V16.5809ZM41.0873 10.6049L40.3358 12.8714H41.8268L41.0873 10.6049ZM39.4883 7.40706H42.7662L46.3638 16.6009H43.006L42.5263 15.2538H39.5763L39.1206 16.6009H35.8548L39.4883 7.40706ZM49.9973 12.9234H49.9694V16.5809H46.9753V7.40306H49.9574V10.7848H49.9853L52.4317 7.40306H56.0613L52.6156 11.6043L56.2292 16.5809H52.4477L49.9973 12.9234ZM56.8648 7.40306H63.1765V9.96935H59.7708V10.7608H62.9687V13.1592H59.7708V14.0147H63.3964V16.5809H56.8648V7.40306ZM72.8901 16.5809H69.8041V10.0093H67.5496V7.40306H75.1446V10.0093H72.8901V16.5809ZM76.0919 7.40306H79.2019V16.5809H76.0919V7.40306ZM83.2392 11.3964L83.3831 16.5809H80.505V7.40306H84.5423L86.2012 12.3438H86.2652L87.7082 7.40306H91.8734V16.5809H88.8634L88.9554 11.4204L88.8794 11.4084L87.1685 16.5809H84.99L83.3031 11.3964H83.2392ZM93.1765 7.40306H99.4883V9.96935H96.0786V10.7608H99.2805V13.1592H96.0786V14.0147H99.7082V16.5809H93.1765V7.40306ZM109.202 16.5809H106.116V10.0093H103.861V7.40306H111.456V10.0093H109.202V16.5809ZM114.89 11.94C114.886 12.2218 114.932 12.502 115.026 12.7675C115.11 13.006 115.237 13.2269 115.402 13.4191C115.563 13.5914 115.759 13.7276 115.977 13.8188C116.207 13.9187 116.455 13.9691 116.705 13.9667C116.953 13.9698 117.198 13.9194 117.424 13.8188C117.641 13.7257 117.837 13.5897 118 13.4191C118.174 13.2296 118.31 13.0084 118.4 12.7675C118.492 12.5015 118.538 12.2216 118.536 11.94C118.536 11.6678 118.49 11.3974 118.4 11.1406C118.312 10.9082 118.175 10.6971 118 10.521C117.836 10.3514 117.641 10.2156 117.424 10.1213C117.197 10.0238 116.952 9.97479 116.705 9.97735C116.455 9.97563 116.208 10.0246 115.977 10.1213C115.76 10.2136 115.564 10.3496 115.402 10.521C115.236 10.7001 115.108 10.9108 115.026 11.1406C114.934 11.397 114.888 11.6676 114.89 11.94ZM111.612 11.94C111.604 11.2532 111.74 10.5722 112.012 9.94137C112.257 9.36916 112.621 8.8555 113.079 8.43438C113.543 8.01181 114.087 7.68571 114.678 7.47502C115.989 7.02211 117.413 7.02211 118.724 7.47502C119.314 7.68798 119.857 8.01383 120.322 8.43438C120.799 8.85184 121.179 9.36904 121.434 9.94937C121.706 10.5802 121.842 11.2612 121.833 11.948C121.837 12.6345 121.701 13.3146 121.434 13.9467C121.188 14.5321 120.821 15.0592 120.358 15.4937C119.895 15.9255 119.352 16.2623 118.759 16.485C117.452 16.9536 116.022 16.9536 114.714 16.485C114.12 16.2646 113.577 15.9275 113.115 15.4937C112.657 15.0567 112.294 14.5301 112.048 13.9467C111.78 13.3146 111.644 12.6345 111.648 11.948M130.428 16.5809H127.342V10.0093H125.087V7.40306H132.682V10.0093H130.428V16.5809ZM139.226 13.0953H136.712V16.5809H133.63V7.40306H136.7V10.513H139.214V7.40306H142.312V16.5809H139.226V13.0953ZM143.615 7.40306H146.725V16.5809H143.615V7.40306ZM148.028 7.40306H151.102L153.72 12.056H153.772L153.64 7.40306H156.57V16.5809H153.42L150.882 12.1999H150.83L150.958 16.5809H148.028V7.40306ZM160.891 12.9234H160.867V16.5809H157.873V7.40306H160.855V10.7848H160.879L163.33 7.40306H166.959L163.51 11.6043L167.127 16.5809H163.342L160.891 12.9234ZM168.039 7.55896V8.24251H167.831V7.55896H167.591V7.38308H168.282V7.55896H168.039ZM169.154 8.24251L169.158 7.63491H169.154L168.93 8.24251H168.786L168.57 7.63491H168.566L168.57 8.24251H168.374V7.38308H168.67L168.866 7.93471H168.87L169.058 7.38308H169.358V8.24251H169.154Z" fill="white"/>
</g>
<defs>
<clipPath id="clip0_5591_2328">
<rect width="169.043" height="24" fill="white" transform="translate(0.314453)"/>
</clipPath>
</defs>
</svg>
